<?xml version="1.0" encoding="UTF-8"?> <svg xmlns="http://www.w3.org/2000/svg" id="Ebene_1" width="714.34612" height="37.12302" viewBox="0 0 714.34612 37.12302"><path d="m6.02036,37.12302c-1.9923,0-4.07153-.25844-6.02036-.73537v-1.68923c1.51537.34536,3.07538.60615,4.63421.60615,4.02924,0,8.23116-1.95001,8.23116-6.54076,0-3.9846-2.16616-5.11231-5.76193-5.24153v-1.81844c3.46538,0,5.32846-1.38615,5.32846-5.07003,0-2.90152-1.73269-5.10997-4.7646-5.10997-2.73001,0-4.50499,1.51537-5.32846,4.02689H.69308c.73654-3.9846,3.68152-5.84768,7.62383-5.84768,4.33114,0,7.97037,2.16616,7.97037,6.88847,0,3.11767-1.64694,5.37075-4.72231,6.06383v.08693c3.50884.73771,5.1546,3.07538,5.1546,6.62768,0,5.89232-5.76075,7.75305-10.69921,7.75305Z" style="fill:#fff;"></path><path d="m32.09058,37.12302c-7.5369,0-9.00998-6.79919-9.00998-12.94994,0-7.88462,2.3823-14.47001,11.43575-14.47001,1.73269,0,3.42191.2185,5.11114.56386v1.73386c-1.16883-.34771-2.3823-.47693-3.5946-.47693-7.36422,0-9.09691,5.88997-9.09691,12.08536,1.77615-2.07923,3.72499-2.98845,6.49729-2.98845,5.06768,0,7.58037,3.33381,7.58037,8.18534,0,5.63153-3.50884,8.31691-8.92306,8.31691Zm.39-14.68381c-2.59962,0-4.15845,1.56001-5.54461,3.51002.25961,3.37845.78,9.35535,5.37075,9.35535,3.63923,0,4.85153-3.1623,4.85153-6.32461,0-2.98845-1.0819-6.54076-4.67767-6.54076Z" style="fill:#fff;"></path><path d="m54.04699,37.12302c-7.92808,0-9.78999-7.10226-9.78999-13.68766,0-6.58304,1.86191-13.7323,9.78999-13.7323,7.92691,0,9.78881,7.14925,9.78881,13.7323,0,6.58539-1.86191,13.68766-9.78881,13.68766Zm0-25.59916c-5.45885,0-5.89232,8.01384-5.89232,11.91151,0,3.90002.47693,11.86922,5.89232,11.86922,5.41421,0,5.88997-7.9692,5.88997-11.86922,0-3.89767-.43229-11.91151-5.88997-11.91151Z" style="fill:#fff;"></path><path d="m67.5972,27.55152v-2.73001h12.99576v2.73001h-12.99576Z" style="fill:#fff;"></path><path d="m107.14011,25.12458v10.74385c-2.59845.90922-5.41421,1.25458-8.18652,1.25458-9.70306,0-13.55844-6.58304-13.55844-15.59303,0-9.3577,2.7723-14.1223,12.77844-14.1223,2.81577,0,5.58807.43464,8.31691,1.17001l.39,6.84383h-1.08308c-.73654-4.24538-3.94231-6.32461-8.14305-6.32461-7.19154,0-7.97155,6.15075-7.97155,11.86922,0,6.84383,1.81962,14.20923,10.13653,14.20923,1.17001,0,2.33884-.08693,3.46538-.34771v-9.70306c0-2.81459-1.12654-3.5946-3.76845-3.55231v-.86458h11.26307v.86458c-2.68655-.04229-3.63923.78-3.63923,3.55231Z" style="fill:#fff;"></path><path d="m130.43568,36.69072l-8.66345-14.64152h-1.77615v10.22228c0,2.94616,1.08308,3.55231,3.81192,3.55231v.86693h-11.43575v-.86693c2.72884.04464,3.76963-.60615,3.76963-3.55231V12.25922c0-2.94381-1.04079-3.55231-3.76963-3.55231v-.86458h11.47921c4.46153,0,9.70306,1.12537,9.70306,6.62768,0,4.67767-3.29152,6.93076-7.58037,7.27612l5.71846,9.70306c1.25576,2.12152,2.51152,4.3746,5.32729,4.3746v.86693h-6.58422Zm-7.62383-27.15917c-2.51152,0-2.81577.43229-2.81577,2.85923v7.9692c4.37577,0,9.48691-.21615,9.48691-5.88997,0-3.81309-3.42191-4.93846-6.67115-4.93846Z" style="fill:#fff;"></path><path d="m156.37551,36.69072v-.86693c.90922,0,3.07538-.17151,3.07538-1.42844,0-.56386-.17386-1.29922-.39-1.82079l-2.03576-5.45768h-10.87307l-1.86308,5.1546c-.21615.6085-.51922,1.38615-.51922,2.03694,0,1.47308,2.03576,1.51537,3.07538,1.51537v.86693h-9.78999v-.86693c3.59577,0,4.0727-1.86308,5.19807-4.80689l8.96652-23.60921h2.42577l9.00998,23.95458c.95386,2.46923,2.03694,4.46153,4.98192,4.46153v.86693h-11.26189Zm-4.76578-24.4738l-4.85153,13.21073h9.6596l-4.80807-13.21073Z" style="fill:#fff;"></path><path d="m178.02414,36.69072h-10.13653v-.86693c2.72884.08693,3.76845-.73537,3.76845-3.55231V12.25922c0-2.81459-1.03961-3.63923-3.76845-3.55231v-.86458h10.13653c10.0496,0,14.8142,3.93996,14.8142,14.46766,0,10.39614-4.93846,14.38073-14.8142,14.38073Zm0-27.15917c-.43347,0-1.17001,0-1.60347.17151-1.03961.47693-.90922,2.6008-.90922,3.46538v18.19383c0,2.34001-.17386,3.63923,2.51269,3.63923,8.36037,0,10.52535-5.1546,10.52535-12.69151,0-7.58154-2.03576-12.77844-10.52535-12.77844Z" style="fill:#fff;"></path><path d="m197.63701,27.55152v-2.73001h12.99576v2.73001h-12.99576Z" style="fill:#fff;"></path><path d="m223.62265,37.12302c-2.51152,0-4.98075-.43229-7.44998-.82229l-.30307-6.10846h1.08308c.51922,3.46538,3.81074,4.9831,7.01651,4.9831s6.28115-1.9923,6.28115-5.45768c0-3.55231-4.46153-5.41539-7.1469-6.80154-1.38615-.69308-2.81577-1.43079-4.07153-2.3823-2.03694-1.6023-2.81577-3.20694-2.81577-5.80539,0-5.63153,4.93728-7.32076,9.74652-7.32076,2.29537,0,4.46153.30307,6.71344.73771l.30307,5.93461h-1.08308c-.56268-3.46538-3.42191-4.9831-6.7569-4.9831-2.72884,0-5.45768,1.73386-5.45768,4.72231,0,3.07538,3.42191,4.59075,5.76075,5.71846,1.08308.51922,2.12269.99615,3.1623,1.6023,3.29152,1.90537,5.71729,3.72616,5.71729,7.88462,0,6.01919-5.54461,8.09841-10.69921,8.09841Z" style="fill:#fff;"></path><path d="m257.2286,36.69072h-20.27188v-.86693c2.72884,0,3.76845-.64844,3.76845-3.55231V12.25922c0-2.90152-1.03961-3.55231-3.76845-3.55231v-.86458h19.62227l.30425,5.28382h-1.08308c-.56386-2.90152-2.25308-3.5946-5.02539-3.5946h-3.81192c-2.68537,0-2.3823,1.25458-2.3823,3.63689v7.58154h5.58807c2.85923,0,3.94231-.65079,3.94231-3.63923h.90922v8.9677h-.90922c0-2.68537-1.34386-3.63923-3.94231-3.63923h-5.58807v8.92306c0,.90922-.17268,3.07538.86576,3.46538.43347.17386,1.04079.17386,1.51654.17386h4.15845c3.11884,0,4.63538-.86693,5.32846-4.02924h1.08308l-.30425,5.71846Z" style="fill:#fff;"></path><path d="m278.18768,36.69072l-8.66345-14.64152h-1.77615v10.22228c0,2.94616,1.08308,3.55231,3.81192,3.55231v.86693h-11.43575v-.86693c2.72884.04464,3.76963-.60615,3.76963-3.55231V12.25922c0-2.94381-1.04079-3.55231-3.76963-3.55231v-.86458h11.47921c4.46153,0,9.70306,1.12537,9.70306,6.62768,0,4.67767-3.29152,6.93076-7.58037,7.27612l5.71846,9.70306c1.25576,2.12152,2.51152,4.3746,5.32729,4.3746v.86693h-6.58422Zm-7.62383-27.15917c-2.51152,0-2.81577.43229-2.81577,2.85923v7.9692c4.37577,0,9.48691-.21615,9.48691-5.88997,0-3.81309-3.42191-4.93846-6.67115-4.93846Z" style="fill:#fff;"></path><path d="m309.8448,13.3423l-8.79384,23.78072h-2.59845l-9.05345-24.51609c-.90922-2.46923-2.03576-3.90002-4.80807-3.90002v-.86458h11.26189v.86458c-1.25576,0-2.94498.08693-2.94498,1.73386,0,.82229.34654,1.68923.60615,2.42459l6.88729,18.8869,7.36422-19.92534c.17268-.51922.43347-1.17001.43347-1.68923,0-1.38615-2.20962-1.43079-3.1623-1.43079v-.86458h9.74652v.86458c-2.9027,0-4.0727,2.25308-4.93846,4.63538Z" style="fill:#fff;"></path><path d="m314.86078,36.69072v-.86693c2.72884,0,3.76845-.60615,3.76845-3.55231V12.25922c0-2.94381-1.03961-3.55231-3.76845-3.55231v-.86458h11.39229v.86458c-2.72884,0-3.76845.65079-3.76845,3.55231v20.01227c0,2.90387,1.03961,3.55231,3.76845,3.55231v.86693h-11.39229Z" style="fill:#fff;"></path><path d="m342.27604,37.12302c-9.31306,0-12.8219-7.49227-12.8219-15.80918,0-8.22998,2.7723-13.90615,11.86922-13.90615,2.81459,0,5.5869.47693,8.31691,1.2123l.39,6.80154h-1.08308c-.9104-3.94231-3.50884-6.32461-7.6673-6.32461-6.67115,0-7.53808,6.67232-7.53808,11.86922,0,7.23383,2.12269,14.20923,10.70038,14.20923,2.07923,0,3.68152-.30307,5.58807-1.08308v1.86308c-2.46923.90922-5.11231,1.16766-7.75423,1.16766Z" style="fill:#fff;"></path><path d="m372.85008,36.69072h-20.27188v-.86693c2.72884,0,3.76963-.64844,3.76963-3.55231V12.25922c0-2.90152-1.04079-3.55231-3.76963-3.55231v-.86458h19.62344l.30307,5.28382h-1.08308c-.56386-2.90152-2.25308-3.5946-5.02539-3.5946h-3.81074c-2.68772,0-2.3823,1.25458-2.3823,3.63689v7.58154h5.5869c2.85923,0,3.94231-.65079,3.94231-3.63923h.90922v8.9677h-.90922c0-2.68537-1.34386-3.63923-3.94231-3.63923h-5.5869v8.92306c0,.90922-.17386,3.07538.86458,3.46538.43464.17386,1.04079.17386,1.51772.17386h4.15845c3.11767,0,4.63304-.86693,5.32611-4.02924h1.08308l-.30307,5.71846Z" style="fill:#fff;"></path><path d="m407.57905,13.12615c-.78-2.85923-2.16616-3.5946-5.02304-3.5946h-3.81309c-2.68537,0-2.3823,1.25458-2.3823,3.63689v7.58154h5.5869c2.85923,0,3.94231-.65079,3.94231-3.63923h.90922v8.9677h-.90922c0-2.68537-1.34151-3.63923-3.94231-3.63923h-5.5869v9.83228c0,3.20694,1.42844,3.55231,4.28767,3.55231v.86693h-11.91151v-.86693c2.73001,0,3.76845-.64844,3.76845-3.55231V12.25922c0-2.90152-1.03844-3.55231-3.76845-3.55231v-.86458h19.62227l.30307,5.28382h-1.08308Z" style="fill:#fff;"></path><path d="m434.68888,12.25922v14.42537c0,7.32076-1.9923,10.43843-9.87692,10.43843-7.75305,0-10.3515-2.94381-10.3515-10.43843v-14.42537c0-2.90152-1.04079-3.5946-3.76845-3.55231v-.86458h11.39229v.86458c-2.73001-.04229-3.76845.65079-3.76845,3.55231v14.42537c0,4.63538,1.17001,8.7492,6.66997,8.7492,6.10846,0,7.23383-3.37845,7.23383-8.7492v-14.42537c0-2.90152-1.03844-3.5946-3.76845-3.55231v-.86458h10.00613v.86458c-2.72766-.04229-3.76845.65079-3.76845,3.55231Zm-13.5138-7.88227c-1.21464,0-2.16616-.95386-2.16616-2.16616s.90922-2.21079,2.16616-2.21079c1.2123,0,2.20844.9985,2.20844,2.21079s-.99615,2.16616-2.20844,2.16616Zm7.62383,0c-1.21464,0-2.16616-.95386-2.16616-2.16616s.90922-2.21079,2.16616-2.21079c1.25458,0,2.20844.95386,2.20844,2.21079,0,1.25458-.99615,2.16616-2.20844,2.16616Z" style="fill:#fff;"></path><path d="m457.24791,36.69072l-8.66227-14.64152h-1.77615v10.22228c0,2.94616,1.08308,3.55231,3.81074,3.55231v.86693h-11.43457v-.86693c2.72766.04464,3.76845-.60615,3.76845-3.55231V12.25922c0-2.94381-1.04079-3.55231-3.76845-3.55231v-.86458h11.47921c4.46153,0,9.70306,1.12537,9.70306,6.62768,0,4.67767-3.29387,6.93076-7.58154,7.27612l5.71846,9.70306c1.25693,2.12152,2.51152,4.3746,5.32846,4.3746v.86693h-6.58539Zm-7.62383-27.15917c-2.51152,0-2.81459.43229-2.81459,2.85923v7.9692c4.3746,0,9.48457-.21615,9.48457-5.88997,0-3.81309-3.42074-4.93846-6.66997-4.93846Z" style="fill:#fff;"></path><path d="m477.89687,36.69072v-.86693c2.73001,0,3.7708-.60615,3.7708-3.55231V12.25922c0-2.94381-1.04079-3.55231-3.7708-3.55231v-.86458h11.39229v.86458c-2.72766,0-3.76845.65079-3.76845,3.55231v20.01227c0,2.90387,1.04079,3.55231,3.76845,3.55231v.86693h-11.39229Z" style="fill:#fff;"></path><path d="m514.49831,36.69072v-.86693c2.73001,0,3.76845-.64844,3.76845-3.55231V10.35385h-.08693l-9.00998,26.33688h-3.1623l-9.00998-26.33688h-.08458v21.91764c0,2.90387,1.03844,3.55231,3.76845,3.55231v.86693h-10.00613v-.86693c2.72766,0,3.76845-.64844,3.76845-3.55231V12.25922c0-2.90152-1.04079-3.55231-3.76845-3.55231v-.86458h9.00998l8.48842,24.64765h.08693l8.44613-24.64765h8.92541v.86458c-2.73001,0-3.76845.6085-3.76845,3.55231v20.01227c0,2.94616,1.03844,3.55231,3.76845,3.55231v.86693h-11.13385Z" style="fill:#fff;"></path><path d="m550.61343,36.69072v-.86693c2.73001,0,3.76845-.64844,3.76845-3.55231V10.35385h-.08693l-9.00998,26.33688h-3.1623l-9.00998-26.33688h-.08458v21.91764c0,2.90387,1.03844,3.55231,3.76845,3.55231v.86693h-10.00613v-.86693c2.72766,0,3.76845-.64844,3.76845-3.55231V12.25922c0-2.90152-1.04079-3.55231-3.76845-3.55231v-.86458h9.00998l8.48842,24.64765h.08693l8.44613-24.64765h8.92541v.86458c-2.73001,0-3.76845.6085-3.76845,3.55231v20.01227c0,2.94616,1.03844,3.55231,3.76845,3.55231v.86693h-11.13385Z" style="fill:#fff;"></path><path d="m575.90013,37.12302c-9.05462,0-11.17614-7.1469-11.17614-14.85766s2.12152-14.85766,11.17614-14.85766c9.05227,0,11.17614,7.1469,11.17614,14.85766s-2.12387,14.85766-11.17614,14.85766Zm0-28.0261c-6.80154,0-6.88847,8.22998-6.88847,13.16844s.08693,13.16844,6.88847,13.16844,6.88612-8.22998,6.88612-13.16844-.08458-13.16844-6.88612-13.16844Z" style="fill:#fff;"></path><path d="m601.4476,36.69072h-11.30536v-.86693c2.73001.04464,3.76845-.64844,3.76845-3.55231V12.25922c0-2.90152-1.03844-3.5946-3.76845-3.55231v-.86458h11.13385c4.80689,0,9.9615.95151,9.9615,6.93076,0,3.46538-1.95001,5.49997-5.10997,6.49612v.08693c4.15845.69308,6.58304,3.24923,6.58304,7.58154,0,6.66997-5.88997,7.75305-11.26307,7.75305Zm-.64844-27.15917c-3.03309,0-3.03309.78-3.03309,3.63689v7.45233h1.9923c3.90002,0,7.40769-.78,7.40769-5.54461,0-4.15845-2.55616-5.54461-6.3669-5.54461Zm-1.04079,12.77844h-1.9923v9.05227c0,3.37845.17386,3.63923,3.68152,3.63923,3.94231,0,7.19154-1.68923,7.19154-6.06383,0-5.67617-4.15845-6.62768-8.88077-6.62768Z" style="fill:#fff;"></path><path d="m615.95051,36.69072v-.86693c2.73001,0,3.76845-.60615,3.76845-3.55231V12.25922c0-2.94381-1.03844-3.55231-3.76845-3.55231v-.86458h11.39464v.86458c-2.73001,0-3.7708.65079-3.7708,3.55231v20.01227c0,2.90387,1.04079,3.55231,3.7708,3.55231v.86693h-11.39464Z" style="fill:#fff;"></path><path d="m648.26193,36.69072h-19.45076v-.86693c2.73001,0,3.76845-.64844,3.76845-3.55231V12.25922c0-2.90152-1.03844-3.55231-3.76845-3.55231v-.86458h11.39464v.86458c-2.73001,0-3.7708.6085-3.7708,3.55231v20.01227c0,2.6008.43464,2.73001,2.94616,2.73001h2.90152c3.63923,0,4.50617-1.17001,5.19924-4.54846h1.08308l-.30307,6.23768Z" style="fill:#fff;"></path><path d="m650.50797,36.69072v-.86693c2.73001,0,3.7708-.60615,3.7708-3.55231V12.25922c0-2.94381-1.04079-3.55231-3.7708-3.55231v-.86458h11.39229v.86458c-2.72766,0-3.76845.65079-3.76845,3.55231v20.01227c0,2.90387,1.04079,3.55231,3.76845,3.55231v.86693h-11.39229Z" style="fill:#fff;"></path><path d="m683.5994,36.69072h-20.27305v-.86693c2.73001,0,3.76845-.64844,3.76845-3.55231V12.25922c0-2.90152-1.03844-3.55231-3.76845-3.55231v-.86458h19.62227l.30307,5.28382h-1.08308c-.56151-2.90152-2.25073-3.5946-5.02304-3.5946h-3.81309c-2.68537,0-2.3823,1.25458-2.3823,3.63689v7.58154h5.5869c2.85923,0,3.94231-.65079,3.94231-3.63923h.90922v8.9677h-.90922c0-2.68537-1.34151-3.63923-3.94231-3.63923h-5.5869v8.92306c0,.90922-.17386,3.07538.86693,3.46538.43229.17386,1.03844.17386,1.51537.17386h4.15845c3.12002,0,4.63538-.86693,5.32846-4.02924h1.08308l-.30307,5.71846Z" style="fill:#fff;"></path><path d="m710.57766,12.25922v24.43151h-3.20459l-14.25152-24.8638h-.08693v20.44456c0,2.94616,1.03844,3.55231,3.76845,3.55231v.86693h-10.00613v-.86693c2.72766,0,3.76845-.64844,3.76845-3.55231V12.25922c0-2.90152-1.04079-3.55231-3.76845-3.55231v-.86458h7.88227l13.3423,23.2615h.08693V12.25922c0-2.90152-1.03844-3.55231-3.76845-3.55231v-.86458h10.00613v.86458c-2.73001,0-3.76845.6085-3.76845,3.55231Z" style="fill:#fff;"></path></svg> 