<?xml version="1.0" encoding="UTF-8"?> <svg xmlns="http://www.w3.org/2000/svg" viewBox="0 0 723.13 129.99"><defs><style>.cls-1{fill:#0072b6;}.cls-2{fill:#fff;}.cls-3{fill:#f28e00;}</style></defs><title>Element 319</title><g id="Ebene_2" data-name="Ebene 2"><g id="Ebene_1-2" data-name="Ebene 1"><path class="cls-1" d="M374.17.53v59.6c0,18-14.45,32.92-32.48,32.92H0V.53Z"></path><polygon class="cls-2" points="4.08 4.61 88.44 4.61 88.44 88.97 4.08 88.97 4.08 4.61 4.08 4.61"></polygon><path class="cls-3" d="M57.24,55.5H32.94q-3.64,0-3.64,3.64t3.64,3.64H71.81a5.4,5.4,0,0,1,4.74,2.56,11.26,11.26,0,0,1,0,11.9,5.39,5.39,0,0,1-4.74,2.55H32.94a29,29,0,0,1-10.32-2.55Q12.3,72,12.3,59.14T22.62,41a29,29,0,0,1,10.32-2.55h24.3q3.65,0,3.64-3.64t-3.64-3.64H42.66a5.4,5.4,0,0,1-4.74-2.55,11.15,11.15,0,0,1-1.58-6,11.11,11.11,0,0,1,1.58-5.95,5.4,5.4,0,0,1,4.74-2.55H57.24q12.87,0,18.09,10.32a28.74,28.74,0,0,1,2.55,10.33,28.63,28.63,0,0,1-2.55,10.32Q70.11,55.51,57.24,55.5Z"></path><path class="cls-1" d="M115.34,108H128.4v2.26H117.7v8.34h8.84v2.26H117.7v8.72h-2.36Z"></path><path class="cls-1" d="M145.41,114v15.51h-2.29v-1a11.52,11.52,0,0,1-4.59,1.31c-4.34,0-5.24-2-5.24-7.73V114h2.29v8.06c0,4.28.38,5.68,3.29,5.68a10.82,10.82,0,0,0,4.25-1.15V114Z"></path><path class="cls-1" d="M151.86,107.26h2.29v22.27h-2.29Z"></path><path class="cls-1" d="M160.48,107.26h2.29v22.27h-2.29Z"></path><path class="cls-1" d="M189.4,110.39s-4.28-.49-6.07-.49c-3,0-4.69,1-4.69,3.41,0,2.82,1.49,3.29,5.27,4.12,4.28,1,6.17,2,6.17,5.86,0,4.65-2.63,6.51-6.94,6.51a59.24,59.24,0,0,1-6.61-.65l.25-2.17s4.13.53,6.33.53c3,0,4.56-1.15,4.56-4.12,0-2.42-1.28-3.11-4.78-3.79-4.43-1-6.64-2-6.64-6.23,0-4,2.7-5.77,7.08-5.77a52.58,52.58,0,0,1,6.29.62Z"></path><path class="cls-1" d="M206.23,127.45l.07,1.89a53,53,0,0,1-6,.5c-4.65,0-6.17-2.7-6.17-8,0-5.89,2.57-8.16,6.51-8.16,4.1,0,6.23,2.17,6.23,7.26l-.12,1.8H196.47c0,3.25,1,5,4.09,5C202.89,127.73,206.23,127.45,206.23,127.45Zm-1.7-6.58c0-3.72-1.21-5.08-3.91-5.08s-4.15,1.46-4.15,5.08Z"></path><path class="cls-1" d="M212.09,114h2.33v2a14.39,14.39,0,0,1,5.39-2.36v2.42a17.53,17.53,0,0,0-5.39,2.14v11.26h-2.33Z"></path><path class="cls-1" d="M224.71,114l3.72,13.52h1.15L233.36,114h2.35l-4.4,15.51h-4.65L222.29,114Z"></path><path class="cls-1" d="M240.11,107.82h2.3v2.7h-2.3Zm0,6.2h2.3v15.51h-2.3Z"></path><path class="cls-1" d="M258.22,114.18l-.06,2s-2.48-.28-3.66-.28c-3.57,0-4.53,1.49-4.53,5.58,0,4.53.72,6.17,4.53,6.17,1.18,0,3.69-.27,3.69-.27l.09,2a41.48,41.48,0,0,1-4.31.44c-5,0-6.39-2.27-6.39-8.35,0-5.61,1.8-7.78,6.42-7.78A35.61,35.61,0,0,1,258.22,114.18Z"></path><path class="cls-1" d="M274.37,127.45l.06,1.89a52.67,52.67,0,0,1-6,.5c-4.65,0-6.17-2.7-6.17-8,0-5.89,2.57-8.16,6.51-8.16,4.09,0,6.23,2.17,6.23,7.26l-.12,1.8H264.6c0,3.25,1,5,4.1,5C271,127.73,274.37,127.45,274.37,127.45Zm-1.7-6.58c0-3.72-1.21-5.08-3.91-5.08s-4.16,1.46-4.16,5.08Z"></path><path class="cls-1" d="M291.05,129.53h-2.3v-13.4H286.8V114h1.95v-1.39c0-4.47,1.12-5.65,4.16-5.65,1.08,0,3.13.22,3.13.22l0,1.92s-1.74-.06-2.64-.06c-1.73,0-2.32.75-2.32,3.6V114h4.52v2.11h-4.52Z"></path><path class="cls-1" d="M312,114v15.51h-2.29v-1a11.52,11.52,0,0,1-4.59,1.31c-4.34,0-5.24-2-5.24-7.73V114h2.3v8.06c0,4.28.37,5.68,3.28,5.68a10.82,10.82,0,0,0,4.25-1.15V114Zm-10-6.66h2.23v2.79H302Zm6.2,0h2.26v2.79h-2.26Z"></path><path class="cls-1" d="M318.54,114h2.33v2a14.49,14.49,0,0,1,5.39-2.36v2.42a17.53,17.53,0,0,0-5.39,2.14v11.26h-2.33Z"></path><path class="cls-1" d="M352.49,119.79H341.58v9.74h-2.39V108h2.39v9.54h10.91V108h2.36v21.58h-2.36Z"></path><path class="cls-1" d="M372.17,126.64c.1.87.81,1.24,1.8,1.37l-.06,1.83a4.75,4.75,0,0,1-3.69-1.24,15.84,15.84,0,0,1-5.58,1.24c-2.85,0-4.37-1.62-4.37-4.75s1.55-4.28,4.74-4.59l4.87-.46v-1.27c0-2.08-1-3-2.82-3-2.17,0-5.83.4-5.83.4l-.09-1.79a39.46,39.46,0,0,1,6.13-.72c3.29,0,4.9,1.61,4.9,5.06Zm-6.88-4.4c-1.89.18-2.67,1.08-2.67,2.79s.81,2.85,2.39,2.85a17.94,17.94,0,0,0,4.87-1V121.8Z"></path><path class="cls-1" d="M390.65,114v15.51h-2.29v-1a11.52,11.52,0,0,1-4.59,1.31c-4.34,0-5.24-2-5.24-7.73V114h2.29v8.06c0,4.28.37,5.68,3.29,5.68a10.89,10.89,0,0,0,4.25-1.15V114Z"></path><path class="cls-1" d="M407.33,116.32a50.32,50.32,0,0,0-5.43-.5c-1.92,0-3.35.5-3.35,2.33,0,1.45.72,1.89,3.79,2.35,4.09.65,5.58,1.49,5.58,4.5,0,3.63-2.3,4.84-6.05,4.84a43.89,43.89,0,0,1-5.46-.59l.13-2a51.17,51.17,0,0,0,5.11.53c2.55,0,3.91-.56,3.91-2.67,0-1.61-.81-2-3.91-2.48-3.78-.59-5.45-1.33-5.45-4.37,0-3.41,2.76-4.53,5.58-4.53a39.65,39.65,0,0,1,5.61.59Z"></path><path class="cls-1" d="M434.54,112.63c0,2.94-1.39,4.4-4.68,6L434.3,123a26.12,26.12,0,0,0,.87-4.15l2.26,0a28.73,28.73,0,0,1-1.34,5.64l4,3.85L438.64,130l-3.72-3.5a7.81,7.81,0,0,1-7,3.53c-5.05,0-7.23-2.51-7.23-6.79,0-3.53,1.74-5.15,4.75-6.29a5.65,5.65,0,0,1-1.58-4.44c0-2.85,1.92-4.71,5.36-4.71C432.84,107.76,434.54,109.62,434.54,112.63Zm-1.36,12.31-6.29-6.39c-2.64.9-3.88,2.14-3.88,4.62,0,2.94,1.52,4.62,5,4.62A5.57,5.57,0,0,0,433.18,124.94Zm-5.64-8.72.84.87c2.72-1.18,3.84-2.11,3.84-4.31,0-1.86-.9-2.85-3-2.85-1.95,0-3,.9-3,2.79A4.5,4.5,0,0,0,427.54,116.22Z"></path><path class="cls-1" d="M461.36,118.52h5.92v10.57a55.18,55.18,0,0,1-7,.75c-6.51,0-8.3-4.07-8.3-11.07s1.79-11.14,8.24-11.14a39.73,39.73,0,0,1,7,.81l-.09,2.14a49.4,49.4,0,0,0-6.67-.65c-5,0-6,2.91-6,8.84s1,8.77,6,8.77a38.58,38.58,0,0,0,4.43-.4v-6.45h-3.56Z"></path><path class="cls-1" d="M483.77,126.64c.1.87.81,1.24,1.8,1.37l-.06,1.83a4.75,4.75,0,0,1-3.69-1.24,15.84,15.84,0,0,1-5.58,1.24c-2.85,0-4.37-1.62-4.37-4.75s1.55-4.28,4.74-4.59l4.87-.46v-1.27c0-2.08-1-3-2.82-3-2.17,0-5.83.4-5.83.4l-.1-1.79a39.66,39.66,0,0,1,6.14-.72c3.29,0,4.9,1.61,4.9,5.06Zm-6.88-4.4c-1.89.18-2.67,1.08-2.67,2.79s.81,2.85,2.39,2.85a17.94,17.94,0,0,0,4.87-1V121.8Z"></path><path class="cls-1" d="M490.34,114h2.33v2a14.39,14.39,0,0,1,5.39-2.36v2.42a17.53,17.53,0,0,0-5.39,2.14v11.26h-2.33Z"></path><path class="cls-1" d="M505.16,116.13v7.23c0,3.37.19,4.3,2.23,4.3.87,0,2.76-.15,2.76-.15l.13,2a26.49,26.49,0,0,1-3.14.34c-3.19,0-4.31-1.21-4.31-5.68v-8.06h-2.2V114h2.2v-4.74h2.33V114h4.9v2.11Z"></path><path class="cls-1" d="M525.84,127.45l.06,1.89a52.69,52.69,0,0,1-6,.5c-4.65,0-6.17-2.7-6.17-8,0-5.89,2.58-8.16,6.52-8.16s6.23,2.17,6.23,7.26l-.13,1.8H516.07c0,3.25,1,5,4.09,5C522.49,127.73,525.84,127.45,525.84,127.45Zm-1.71-6.58c0-3.72-1.21-5.08-3.9-5.08s-4.16,1.46-4.16,5.08Z"></path><path class="cls-1" d="M531.69,129.53V114H534v1.12a11.39,11.39,0,0,1,4.81-1.43c4.24,0,5.21,2.11,5.21,7.75v8.07h-2.3v-8.1c0-4.12-.46-5.64-3.35-5.64A10.39,10.39,0,0,0,534,117v12.56Z"></path><path class="cls-2" d="M167.35,76.65h-53.1v-59h53.1a17.68,17.68,0,0,1,17.7,17.7V59A17.67,17.67,0,0,1,167.35,76.65Zm5.9-41.3a5.84,5.84,0,0,0-5.9-5.9h-41.3v35.4h41.3a5.84,5.84,0,0,0,5.9-5.9Z"></path><path class="cls-2" d="M250,76.65h-35.4A17.68,17.68,0,0,1,196.85,59V17.65h11.8V59a5.84,5.84,0,0,0,5.9,5.9H250a5.84,5.84,0,0,0,5.9-5.9V17.65h11.8V59A17.67,17.67,0,0,1,250,76.65Z"></path><path class="cls-2" d="M332.55,76.65h-35.4A17.68,17.68,0,0,1,279.45,59V35.35a17.68,17.68,0,0,1,17.7-17.7h35.4a17.68,17.68,0,0,1,17.7,17.7V59A17.68,17.68,0,0,1,332.55,76.65Zm5.9-41.3a5.85,5.85,0,0,0-5.9-5.9h-35.4a5.85,5.85,0,0,0-5.9,5.9V59a5.84,5.84,0,0,0,5.9,5.9h35.4a5.84,5.84,0,0,0,5.9-5.9Z"></path><path class="cls-3" d="M528.43,76.65H493A17.68,17.68,0,0,1,475.33,59V35.35A17.68,17.68,0,0,1,493,17.65h35.4a17.68,17.68,0,0,1,17.7,17.7V59A17.68,17.68,0,0,1,528.43,76.65Zm5.9-41.3a5.85,5.85,0,0,0-5.9-5.9H493a5.85,5.85,0,0,0-5.9,5.9V59a5.84,5.84,0,0,0,5.9,5.9h35.4a5.84,5.84,0,0,0,5.9-5.9Z"></path><path class="cls-3" d="M628.73,76.65V35.35a5.85,5.85,0,0,0-5.9-5.9H611a5.84,5.84,0,0,0-5.9,5.9v41.3h-11.8V35.35a5.85,5.85,0,0,0-5.9-5.9h-11.8a5.85,5.85,0,0,0-5.9,5.9v41.3h-11.8V35.35a17.68,17.68,0,0,1,17.7-17.7h11.8a17.7,17.7,0,0,1,11.8,4.49A17.68,17.68,0,0,1,611,17.65h11.8a17.68,17.68,0,0,1,17.7,17.7v41.3Z"></path><path class="cls-3" d="M670,76.65A17.67,17.67,0,0,1,652.33,59V35.35A17.68,17.68,0,0,1,670,17.65h35.4a17.68,17.68,0,0,1,17.7,17.7v17.7h-59V59a5.84,5.84,0,0,0,5.9,5.9h53.1v11.8Zm41.3-41.3a5.85,5.85,0,0,0-5.9-5.9H670a5.84,5.84,0,0,0-5.9,5.9v5.9h47.2Z"></path><path class="cls-3" d="M445.83,17.65h-41.3V0h-11.8V76.65h11.8V29.45h41.3a5.85,5.85,0,0,1,5.9,5.9v41.3h11.8V35.35A17.68,17.68,0,0,0,445.83,17.65Z"></path></g></g></svg> 