<?xml version="1.0" encoding="UTF-8"?> <svg xmlns="http://www.w3.org/2000/svg" viewBox="0 0 600.76 136.29"><defs><style>.cls-1,.cls-4{fill:#0072b6;}.cls-2,.cls-5{fill:#fff;}.cls-3{fill:#f28e00;}.cls-3,.cls-4,.cls-5{fill-rule:evenodd;}</style></defs><title>Element 320</title><g id="Ebene_2" data-name="Ebene 2"><g id="Ebene_1-2" data-name="Ebene 1"><path class="cls-1" d="M374.17,0V59.61c0,18-14.45,32.91-32.48,32.91H0V0Z"></path><polygon class="cls-2" points="4.08 4.08 88.44 4.08 88.44 88.44 4.08 88.44 4.08 4.08 4.08 4.08"></polygon><path class="cls-3" d="M57.24,55H32.94q-3.64,0-3.64,3.65t3.64,3.64H71.81a5.39,5.39,0,0,1,4.74,2.55,11.26,11.26,0,0,1,0,11.9,5.39,5.39,0,0,1-4.74,2.55H32.94a28.63,28.63,0,0,1-10.32-2.55Q12.3,71.49,12.3,58.62t10.32-18.1A28.63,28.63,0,0,1,32.94,38h24.3q3.65,0,3.64-3.65t-3.64-3.64H42.66a5.4,5.4,0,0,1-4.74-2.55,11.09,11.09,0,0,1-1.58-5.95,11.09,11.09,0,0,1,1.58-5.95,5.4,5.4,0,0,1,4.74-2.55H57.24q12.87,0,18.09,10.32a28.63,28.63,0,0,1,2.55,10.32,28.74,28.74,0,0,1-2.55,10.33Q70.11,55,57.24,55Z"></path><path class="cls-4" d="M113.45,129h2.39l1.55-5.42h9L128,129h2.36l-5.8-21.54h-5.24Zm7.69-19.37h1.55l3.19,11.65H118Z"></path><path class="cls-4" d="M140.17,136.29c4.37,0,6.91-1.43,6.91-4.93,0-3.69-1.58-4.56-6-4.56-3.47,0-3.75-.19-3.75-1.43a9.17,9.17,0,0,1,.56-1.76,14.09,14.09,0,0,0,1.51.12c4,0,6-1.18,6-5.23a4.14,4.14,0,0,0-1-3.08l2.85.06v-2l-4.53.12a13.16,13.16,0,0,0-3.22-.43c-3.44,0-5.77,1.49-5.77,5.3,0,2.89,1.15,4.09,2.42,4.68a10.15,10.15,0,0,0-1,2.45,2.46,2.46,0,0,0,.86,2.14c-1.64,1.21-2.48,2-2.48,3.85C133.5,135.2,135.27,136.29,140.17,136.29Zm.74-7.44c2.79,0,3.82.24,3.82,2.6,0,2.05-1.4,2.88-4.53,2.88-3.5,0-4.4-.77-4.4-2.91,0-1.21.46-1.77,1.73-2.73C137.53,128.69,139.8,128.85,140.91,128.85Zm-1.48-7c-2.58,0-3.38-1.15-3.38-3.38,0-2.48,1.14-3.41,3.44-3.41,2.63,0,3.59.72,3.59,3.41C143.08,121,142,121.87,139.43,121.87Z"></path><path class="cls-4" d="M156.87,127.2c-3.07,0-4.06-1.7-4.09-5H163l.13-1.79c0-5.09-2.14-7.26-6.24-7.26-3.93,0-6.5,2.26-6.5,8.15,0,5.27,1.51,8,6.16,8a53.74,53.74,0,0,0,6-.49l-.06-1.9S159.2,127.2,156.87,127.2Zm-4.09-6.85c0-3.62,1.49-5.08,4.15-5.08s3.91,1.36,3.91,5.08Z"></path><path class="cls-4" d="M170.38,129V116.45a10.39,10.39,0,0,1,4.37-1.18c2.89,0,3.35,1.52,3.35,5.64V129h2.3v-8.06c0-5.64-1-7.75-5.21-7.75a11.39,11.39,0,0,0-4.81,1.43V113.5h-2.32V129Z"></path><path class="cls-4" d="M194,115.61V113.5h-4.9v-4.74h-2.32v4.74h-2.2v2.11h2.2v8.06c0,4.46,1.11,5.67,4.31,5.67a26.5,26.5,0,0,0,3.13-.34l-.13-2s-1.89.15-2.76.15c-2,0-2.23-.93-2.23-4.31v-7.22Z"></path><path class="cls-4" d="M208.07,113.5v12.59a10.89,10.89,0,0,1-4.25,1.14c-2.91,0-3.28-1.39-3.28-5.67V113.5h-2.3v8.09c0,5.74.9,7.72,5.24,7.72a11.58,11.58,0,0,0,4.59-1.3v1h2.29V113.5Z"></path><path class="cls-4" d="M216.56,129h2.32V117.75a17.51,17.51,0,0,1,5.4-2.14v-2.42a14.49,14.49,0,0,0-5.4,2.36v-2h-2.32Z"></path><path class="cls-4" d="M242.53,115.61h4.53V113.5h-4.53v-1.36c0-2.85.59-3.6,2.33-3.6.9,0,2.63.06,2.63.06l0-1.92s-2-.22-3.13-.22c-3,0-4.15,1.18-4.15,5.65v1.39h-2v2.11h2V129h2.29Z"></path><path class="cls-4" d="M260.85,113.5v12.59a10.89,10.89,0,0,1-4.25,1.14c-2.91,0-3.28-1.39-3.28-5.67V113.5H251v8.09c0,5.74.9,7.72,5.24,7.72a11.58,11.58,0,0,0,4.59-1.3v1h2.29V113.5Zm-7.75-3.87h2.23v-2.79H253.1Zm6.2,0h2.26v-2.79H259.3Z"></path><path class="cls-4" d="M269.34,129h2.32V117.75a17.51,17.51,0,0,1,5.4-2.14v-2.42a14.49,14.49,0,0,0-5.4,2.36v-2h-2.32Z"></path><path class="cls-4" d="M300.83,121.78c4.68,0,6.85-2.76,6.85-7.44s-2.17-6.91-6.85-6.91H293V129h2.39v-7.22Zm-5.45-2.3v-9.76h5.42c3.13,0,4.43,1.46,4.43,4.62s-1.3,5.14-4.43,5.14Z"></path><path class="cls-4" d="M317.75,127.2c-3.07,0-4.06-1.7-4.09-5h10.26l.13-1.79c0-5.09-2.14-7.26-6.24-7.26-3.93,0-6.51,2.26-6.51,8.15,0,5.27,1.52,8,6.17,8a54,54,0,0,0,6-.49l-.06-1.9S320.08,127.2,317.75,127.2Zm-4.09-6.85c0-3.62,1.49-5.08,4.15-5.08s3.91,1.36,3.91,5.08Z"></path><path class="cls-4" d="M328.94,129h2.32V117.75a17.51,17.51,0,0,1,5.4-2.14v-2.42a14.49,14.49,0,0,0-5.4,2.36v-2h-2.32Z"></path><path class="cls-4" d="M350.94,113.78a39.45,39.45,0,0,0-5.61-.59c-2.82,0-5.58,1.12-5.58,4.53,0,3,1.68,3.78,5.46,4.37,3.1.49,3.9.87,3.9,2.48,0,2.11-1.36,2.66-3.9,2.66-1.58,0-5.12-.52-5.12-.52l-.12,2a43.64,43.64,0,0,0,5.45.59c3.76,0,6.05-1.21,6.05-4.83,0-3-1.49-3.85-5.58-4.5-3.07-.46-3.78-.9-3.78-2.36,0-1.82,1.42-2.32,3.35-2.32a50.33,50.33,0,0,1,5.42.5Z"></path><path class="cls-4" d="M362.19,113.19c-4.9,0-6.67,2.51-6.67,7.84,0,5.68,1.43,8.28,6.67,8.28s6.6-2.85,6.6-8.21S366.87,113.19,362.19,113.19Zm0,14c-3.66,0-4.28-1.86-4.28-6.2s1-5.73,4.28-5.73c3,0,4.22,1.67,4.22,5.8S365.85,127.23,362.19,127.23Z"></path><path class="cls-4" d="M376.13,129V116.45a10.41,10.41,0,0,1,4.38-1.18c2.88,0,3.34,1.52,3.34,5.64V129h2.3v-8.06c0-5.64-1-7.75-5.21-7.75a11.39,11.39,0,0,0-4.81,1.43V113.5h-2.32V129Z"></path><path class="cls-4" d="M402.91,118.24c0-3.44-1.61-5-4.9-5a40,40,0,0,0-6.13.71l.09,1.8s3.66-.4,5.83-.4c1.86,0,2.82.87,2.82,2.94v1.28l-4.87.46c-3.19.31-4.74,1.61-4.74,4.59,0,3.13,1.52,4.74,4.37,4.74a15.84,15.84,0,0,0,5.58-1.24,4.75,4.75,0,0,0,3.69,1.24l.06-1.83c-1-.12-1.7-.49-1.8-1.36Zm-2.29,3v5.12a17.94,17.94,0,0,1-4.87,1c-1.58,0-2.38-1.06-2.38-2.85s.77-2.61,2.66-2.79Z"></path><rect class="cls-1" x="409.05" y="106.74" width="2.29" height="22.26"></rect><path class="cls-4" d="M419.73,129V116.48a10,10,0,0,1,4.16-1.15c2.82,0,3.25,1.4,3.25,5.67v8h2.33v-8.06a19.33,19.33,0,0,0-.37-4.46,10.94,10.94,0,0,1,4.34-1.15c2.94,0,3.25,1.58,3.25,6.32V129H439v-8.06c0-5.73-1-7.75-5.24-7.75a17.43,17.43,0,0,0-5.61,1.4,4,4,0,0,0-2.86-1.31,7.59,7.59,0,0,0-1.7,0,9.73,9.73,0,0,0-3.88,1.24V113.5h-2.32V129Z"></path><path class="cls-4" d="M455.69,118.24c0-3.44-1.61-5-4.9-5a40.19,40.19,0,0,0-6.14.71l.1,1.8s3.65-.4,5.82-.4c1.86,0,2.83.87,2.83,2.94v1.28l-4.87.46c-3.19.31-4.74,1.61-4.74,4.59,0,3.13,1.51,4.74,4.37,4.74a15.84,15.84,0,0,0,5.58-1.24,4.73,4.73,0,0,0,3.69,1.24l.06-1.83c-1-.12-1.71-.49-1.8-1.36Zm-2.29,3v5.12a17.94,17.94,0,0,1-4.87,1c-1.58,0-2.39-1.06-2.39-2.85s.78-2.61,2.67-2.79Z"></path><path class="cls-4" d="M464.24,129V116.45a10.39,10.39,0,0,1,4.37-1.18c2.88,0,3.35,1.52,3.35,5.64V129h2.29v-8.06c0-5.64-1-7.75-5.21-7.75a11.38,11.38,0,0,0-4.8,1.43V113.5h-2.33V129Z"></path><path class="cls-4" d="M491,118.24c0-3.44-1.61-5-4.9-5a40.19,40.19,0,0,0-6.14.71l.1,1.8s3.65-.4,5.82-.4c1.86,0,2.82.87,2.82,2.94v1.28l-4.86.46c-3.2.31-4.75,1.61-4.75,4.59,0,3.13,1.52,4.74,4.38,4.74a15.76,15.76,0,0,0,5.57-1.24,4.76,4.76,0,0,0,3.69,1.24l.07-1.83c-1-.12-1.71-.49-1.8-1.36Zm-2.3,3v5.12a17.83,17.83,0,0,1-4.86,1c-1.58,0-2.39-1.06-2.39-2.85s.78-2.61,2.67-2.79Z"></path><path class="cls-4" d="M502.67,136.29c4.37,0,6.91-1.43,6.91-4.93,0-3.69-1.58-4.56-6-4.56-3.47,0-3.75-.19-3.75-1.43a9.29,9.29,0,0,1,.55-1.76,14.26,14.26,0,0,0,1.52.12c4,0,6-1.18,6-5.23a4.1,4.1,0,0,0-1-3.08l2.86.06v-2l-4.53.12a13.16,13.16,0,0,0-3.22-.43c-3.44,0-5.77,1.49-5.77,5.3,0,2.89,1.15,4.09,2.42,4.68a10.15,10.15,0,0,0-1,2.45,2.43,2.43,0,0,0,.86,2.14c-1.64,1.21-2.48,2-2.48,3.85C496,135.2,497.77,136.29,502.67,136.29Zm.74-7.44c2.79,0,3.82.24,3.82,2.6,0,2.05-1.4,2.88-4.53,2.88-3.5,0-4.4-.77-4.4-2.91,0-1.21.46-1.77,1.73-2.73C500,128.69,502.3,128.85,503.41,128.85Zm-1.49-7c-2.57,0-3.37-1.15-3.37-3.38,0-2.48,1.14-3.41,3.44-3.41,2.63,0,3.59.72,3.59,3.41C505.58,121,504.53,121.87,501.92,121.87Z"></path><path class="cls-4" d="M519.37,127.2c-3.07,0-4.06-1.7-4.09-5h10.26l.12-1.79c0-5.09-2.13-7.26-6.23-7.26-3.93,0-6.51,2.26-6.51,8.15,0,5.27,1.52,8,6.17,8a54,54,0,0,0,6-.49l-.07-1.9S521.7,127.2,519.37,127.2Zm-4.09-6.85c0-3.62,1.49-5.08,4.15-5.08s3.91,1.36,3.91,5.08Z"></path><path class="cls-4" d="M532.88,129V116.48a10,10,0,0,1,4.16-1.15c2.82,0,3.25,1.4,3.25,5.67v8h2.33v-8.06a18.65,18.65,0,0,0-.38-4.46,11.06,11.06,0,0,1,4.34-1.15c2.95,0,3.26,1.58,3.26,6.32V129h2.32v-8.06c0-5.73-1-7.75-5.23-7.75a17.51,17.51,0,0,0-5.62,1.4,4,4,0,0,0-2.85-1.31,7.59,7.59,0,0,0-1.7,0,9.73,9.73,0,0,0-3.88,1.24V113.5h-2.32V129Z"></path><path class="cls-4" d="M563.41,127.2c-3.07,0-4.06-1.7-4.09-5h10.26l.13-1.79c0-5.09-2.14-7.26-6.24-7.26-3.93,0-6.51,2.26-6.51,8.15,0,5.27,1.52,8,6.17,8a54,54,0,0,0,6-.49l-.07-1.9S565.74,127.2,563.41,127.2Zm-4.09-6.85c0-3.62,1.49-5.08,4.15-5.08s3.91,1.36,3.91,5.08Z"></path><path class="cls-4" d="M576.92,129V116.45a10.39,10.39,0,0,1,4.37-1.18c2.89,0,3.35,1.52,3.35,5.64V129h2.3v-8.06c0-5.64-1-7.75-5.21-7.75a11.39,11.39,0,0,0-4.81,1.43V113.5H574.6V129Z"></path><path class="cls-4" d="M600.54,115.61V113.5h-4.9v-4.74h-2.32v4.74h-2.21v2.11h2.21v8.06c0,4.46,1.11,5.67,4.3,5.67a26.49,26.49,0,0,0,3.14-.34l-.13-2s-1.89.15-2.76.15c-2,0-2.23-.93-2.23-4.31v-7.22Z"></path><path class="cls-5" d="M185.43,58.33V34.79a17.66,17.66,0,0,0-17.7-17.68h-53.1V76h53.1A17.65,17.65,0,0,0,185.43,58.33Zm-11.8,0a5.83,5.83,0,0,1-5.9,5.89h-41.3V28.91h41.3a5.83,5.83,0,0,1,5.9,5.88Z"></path><path class="cls-5" d="M268,58.36V17.23h-11.8V58.36a5.83,5.83,0,0,1-5.9,5.88h-35.4a5.84,5.84,0,0,1-5.9-5.88V17.23h-11.8V58.36A17.65,17.65,0,0,0,214.93,76h35.4A17.65,17.65,0,0,0,268,58.36Z"></path><path class="cls-5" d="M350.63,58.33V34.79a17.67,17.67,0,0,0-17.7-17.68h-35.4a17.67,17.67,0,0,0-17.7,17.68V58.33A17.66,17.66,0,0,0,297.53,76h35.4A17.66,17.66,0,0,0,350.63,58.33Zm-11.8,0a5.83,5.83,0,0,1-5.9,5.89h-35.4a5.84,5.84,0,0,1-5.9-5.89V34.79a5.84,5.84,0,0,1,5.9-5.88h35.4a5.83,5.83,0,0,1,5.9,5.88Z"></path><path class="cls-3" d="M433.82,73.92V17.11h-35.4v11.8H422v45a5.84,5.84,0,0,1-5.9,5.89h-35.4V91.59h35.4A17.66,17.66,0,0,0,433.82,73.92Z"></path><path class="cls-3" d="M515.24,58.33V34.79a17.67,17.67,0,0,0-17.7-17.68h-35.4a17.67,17.67,0,0,0-17.7,17.68V58.33A17.66,17.66,0,0,0,462.14,76h35.4A17.66,17.66,0,0,0,515.24,58.33Zm-11.8,0a5.84,5.84,0,0,1-5.9,5.89h-35.4a5.84,5.84,0,0,1-5.9-5.89V34.79a5.84,5.84,0,0,1,5.9-5.88h35.4a5.84,5.84,0,0,1,5.9,5.88Z"></path><path class="cls-3" d="M597.84,58.33V34.79a17.67,17.67,0,0,0-17.7-17.68h-41.3V.51H527V76h53.1A17.66,17.66,0,0,0,597.84,58.33Zm-11.8,0a5.84,5.84,0,0,1-5.9,5.89h-41.3V28.91h41.3a5.84,5.84,0,0,1,5.9,5.88Z"></path></g></g></svg> 