<?xml version="1.0" encoding="UTF-8"?> <svg xmlns="http://www.w3.org/2000/svg" viewBox="0 0 374.17 136.29"><defs><style>.cls-1,.cls-5{fill:#0072b6;}.cls-2,.cls-4{fill:#fff;}.cls-3{fill:#f28e00;}.cls-3,.cls-4,.cls-5{fill-rule:evenodd;}</style></defs><title>Element 318</title><g id="Ebene_2" data-name="Ebene 2"><g id="Ebene_1-2" data-name="Ebene 1"><path class="cls-1" d="M374.17,0V59.61c0,18-14.45,32.91-32.48,32.91H0V0Z"></path><polygon class="cls-2" points="4.08 4.08 88.44 4.08 88.44 88.44 4.08 88.44 4.08 4.08 4.08 4.08"></polygon><path class="cls-3" d="M57.24,55H32.94q-3.64,0-3.64,3.65t3.64,3.64H71.81a5.39,5.39,0,0,1,4.74,2.55,11.26,11.26,0,0,1,0,11.9,5.39,5.39,0,0,1-4.74,2.55H32.94a28.63,28.63,0,0,1-10.32-2.55Q12.3,71.49,12.3,58.62t10.32-18.1A28.63,28.63,0,0,1,32.94,38h24.3q3.65,0,3.64-3.65t-3.64-3.64H42.66a5.4,5.4,0,0,1-4.74-2.55,11.09,11.09,0,0,1-1.58-5.95,11.09,11.09,0,0,1,1.58-5.95,5.4,5.4,0,0,1,4.74-2.55H57.24q12.87,0,18.09,10.32a28.63,28.63,0,0,1,2.55,10.32,28.74,28.74,0,0,1-2.55,10.33Q70.11,55,57.24,55Z"></path><path class="cls-4" d="M185.43,58.33V34.79a17.66,17.66,0,0,0-17.7-17.68h-53.1V76h53.1A17.65,17.65,0,0,0,185.43,58.33Zm-11.8,0a5.83,5.83,0,0,1-5.9,5.89h-41.3V28.91h41.3a5.83,5.83,0,0,1,5.9,5.88Z"></path><path class="cls-4" d="M268,58.36V17.23h-11.8V58.36a5.83,5.83,0,0,1-5.9,5.88h-35.4a5.84,5.84,0,0,1-5.9-5.88V17.23h-11.8V58.36A17.65,17.65,0,0,0,214.93,76h35.4A17.64,17.64,0,0,0,268,58.36Z"></path><path class="cls-4" d="M350.63,58.33V34.79a17.67,17.67,0,0,0-17.7-17.68h-35.4a17.67,17.67,0,0,0-17.7,17.68V58.33A17.66,17.66,0,0,0,297.53,76h35.4A17.66,17.66,0,0,0,350.63,58.33Zm-11.8,0a5.83,5.83,0,0,1-5.9,5.89h-35.4a5.84,5.84,0,0,1-5.9-5.89V34.79a5.84,5.84,0,0,1,5.9-5.88h35.4a5.83,5.83,0,0,1,5.9,5.88Z"></path><polygon class="cls-5" points="128.64 129 131 129 131 107.42 128.64 107.42 128.64 116.97 117.73 116.97 117.73 107.42 115.34 107.42 115.34 129 117.73 129 117.73 119.27 128.64 119.27 128.64 129"></polygon><path class="cls-5" d="M145.83,113.19c-4.9,0-6.67,2.51-6.67,7.84,0,5.68,1.43,8.28,6.67,8.28s6.6-2.85,6.6-8.21S150.51,113.19,145.83,113.19Zm0,14c-3.66,0-4.28-1.86-4.28-6.2s1-5.73,4.28-5.73c3,0,4.22,1.67,4.22,5.8S149.49,127.23,145.83,127.23Z"></path><rect class="cls-1" x="160.41" y="106.74" width="2.29" height="22.26"></rect><path class="cls-5" d="M183.27,107.3H181v6.29a26.05,26.05,0,0,0-3.79-.4c-4.74,0-6.48,2.7-6.48,8.12,0,6.7,2.55,8,5.55,8A11.34,11.34,0,0,0,181,128v1h2.32Zm-6.73,19.87c-1.83,0-3.53-.83-3.53-5.79,0-4.07,1-6.08,4.28-6.08a33.58,33.58,0,0,1,3.66.34V126A12,12,0,0,1,176.54,127.17Z"></path><path class="cls-5" d="M192.3,129h2.3V113.5h-2.3Zm0-19h2.3v-2.7h-2.3Z"></path><path class="cls-5" d="M206,129V116.45a10.39,10.39,0,0,1,4.37-1.18c2.88,0,3.35,1.52,3.35,5.64V129H216v-8.06c0-5.64-1-7.75-5.21-7.75a11.38,11.38,0,0,0-4.8,1.43V113.5h-2.33V129Z"></path><path class="cls-5" d="M230.49,136.29c4.37,0,6.91-1.43,6.91-4.93,0-3.69-1.58-4.56-6-4.56-3.47,0-3.75-.19-3.75-1.43a9.17,9.17,0,0,1,.56-1.76,14.09,14.09,0,0,0,1.51.12c4,0,6-1.18,6-5.23a4.14,4.14,0,0,0-1-3.08l2.85.06v-2l-4.53.12a13.16,13.16,0,0,0-3.22-.43c-3.44,0-5.77,1.49-5.77,5.3,0,2.89,1.15,4.09,2.42,4.68a10.15,10.15,0,0,0-1,2.45,2.46,2.46,0,0,0,.86,2.14c-1.64,1.21-2.48,2-2.48,3.85C223.82,135.2,225.59,136.29,230.49,136.29Zm.74-7.44c2.79,0,3.82.24,3.82,2.6,0,2.05-1.4,2.88-4.53,2.88-3.5,0-4.4-.77-4.4-2.91,0-1.21.46-1.77,1.73-2.73C227.85,128.69,230.12,128.85,231.23,128.85Zm-1.48-7c-2.58,0-3.38-1.15-3.38-3.38,0-2.48,1.14-3.41,3.44-3.41,2.63,0,3.59.72,3.59,3.41C233.4,121,232.35,121.87,229.75,121.87Z"></path><path class="cls-5" d="M267.23,120.17h3.57v6.44a37.67,37.67,0,0,1-4.43.41c-5,0-6-2.92-6-8.78s1.09-8.83,6-8.83a49.16,49.16,0,0,1,6.66.65l.1-2.14a40.36,40.36,0,0,0-7-.8c-6.45,0-8.25,4-8.25,11.12s1.8,11.07,8.31,11.07a56.15,56.15,0,0,0,7-.74V118h-5.93Z"></path><path class="cls-5" d="M284,129V116.48a9.91,9.91,0,0,1,4.15-1.15c2.82,0,3.25,1.4,3.25,5.67v8h2.33v-8.06a18.77,18.77,0,0,0-.37-4.46,10.94,10.94,0,0,1,4.34-1.15c2.94,0,3.25,1.58,3.25,6.32V129h2.33v-8.06c0-5.73-1-7.75-5.24-7.75a17.43,17.43,0,0,0-5.61,1.4,4,4,0,0,0-2.85-1.31,7.67,7.67,0,0,0-1.71,0,9.72,9.72,0,0,0-3.87,1.24V113.5h-2.33V129Z"></path><path class="cls-5" d="M319.09,113.19a13.2,13.2,0,0,0-4.53,1v-7.47h-2.32V129s3.35.34,5.21.34c5.64,0,7.31-2.2,7.31-8.34C324.76,115.42,323.31,113.19,319.09,113.19Zm-1.67,14c-.84,0-2.86-.18-2.86-.18V116.17a14.64,14.64,0,0,1,4.31-.84c2.73,0,3.54,1.67,3.54,5.7C322.41,125.31,321.66,127.23,317.42,127.23Z"></path><polygon class="cls-5" points="346.23 129 348.58 129 348.58 107.42 346.23 107.42 346.23 116.97 335.32 116.97 335.32 107.42 332.93 107.42 332.93 129 335.32 129 335.32 119.27 346.23 119.27 346.23 129"></polygon></g></g></svg> 