<?xml version="1.0" encoding="UTF-8"?> <svg xmlns="http://www.w3.org/2000/svg" viewBox="0 0 599.86 136.29"><defs><style>.cls-1,.cls-4{fill:#0072b6;}.cls-2,.cls-5{fill:#fff;}.cls-3{fill:#f28e00;}.cls-3,.cls-4,.cls-5{fill-rule:evenodd;}</style></defs><title>Element 322</title><g id="Ebene_2" data-name="Ebene 2"><g id="Ebene_1-2" data-name="Ebene 1"><path class="cls-1" d="M374.17,0V59.61c0,18-14.45,32.91-32.48,32.91H0V0Z"></path><polygon class="cls-2" points="4.08 4.08 88.44 4.08 88.44 88.44 4.08 88.44 4.08 4.08 4.08 4.08"></polygon><path class="cls-3" d="M57.24,55H32.94q-3.64,0-3.64,3.65t3.64,3.64H71.81a5.39,5.39,0,0,1,4.74,2.55,11.26,11.26,0,0,1,0,11.9,5.39,5.39,0,0,1-4.74,2.55H32.94a28.63,28.63,0,0,1-10.32-2.55Q12.3,71.49,12.3,58.62t10.32-18.1A28.63,28.63,0,0,1,32.94,38h24.3q3.65,0,3.64-3.65t-3.64-3.64H42.66a5.4,5.4,0,0,1-4.74-2.55,11.09,11.09,0,0,1-1.58-5.95,11.09,11.09,0,0,1,1.58-5.95,5.4,5.4,0,0,1,4.74-2.55H57.24q12.87,0,18.09,10.32a28.63,28.63,0,0,1,2.55,10.32,28.74,28.74,0,0,1-2.55,10.33Q70.11,55,57.24,55Z"></path><polygon class="cls-4" points="112.43 109.72 119.03 109.72 119.03 129 121.39 129 121.39 109.72 127.93 109.72 127.93 107.42 112.43 107.42 112.43 109.72"></polygon><path class="cls-4" d="M136.39,127.2c-3.06,0-4.06-1.7-4.09-5h10.26l.13-1.79c0-5.09-2.14-7.26-6.23-7.26-3.94,0-6.51,2.26-6.51,8.15,0,5.27,1.52,8,6.17,8a53.72,53.72,0,0,0,6-.49l-.06-1.9S138.72,127.2,136.39,127.2Zm-4.09-6.85c0-3.62,1.49-5.08,4.16-5.08s3.9,1.36,3.9,5.08Z"></path><path class="cls-4" d="M152.67,113.19c-4.62,0-6.42,2.17-6.42,7.78,0,6.08,1.43,8.34,6.39,8.34a42.75,42.75,0,0,0,4.31-.43l-.09-2s-2.52.28-3.69.28c-3.82,0-4.53-1.64-4.53-6.17,0-4.09,1-5.58,4.53-5.58,1.17,0,3.65.28,3.65.28l.07-2A35.61,35.61,0,0,0,152.67,113.19Z"></path><path class="cls-4" d="M163.86,129V116.23a14.77,14.77,0,0,1,4.44-.9c2.79,0,3.25,1.52,3.25,5.61V129h2.33v-8.09c0-5.61-1-7.72-5.24-7.72a15.33,15.33,0,0,0-4.78,1.06v-7.51h-2.32V129Z"></path><path class="cls-4" d="M182,129V116.45a10.39,10.39,0,0,1,4.37-1.18c2.88,0,3.35,1.52,3.35,5.64V129H192v-8.06c0-5.64-1-7.75-5.21-7.75a11.38,11.38,0,0,0-4.8,1.43V113.5h-2.33V129Z"></path><path class="cls-4" d="M203.36,113.19c-4.9,0-6.67,2.51-6.67,7.84,0,5.68,1.43,8.28,6.67,8.28s6.6-2.85,6.6-8.21S208,113.19,203.36,113.19Zm0,14c-3.66,0-4.28-1.86-4.28-6.2s1-5.73,4.28-5.73c3,0,4.21,1.67,4.21,5.8S207,127.23,203.36,127.23Z"></path><rect class="cls-1" x="214.71" y="106.74" width="2.29" height="22.26"></rect><path class="cls-4" d="M228.41,113.19c-4.9,0-6.67,2.51-6.67,7.84,0,5.68,1.43,8.28,6.67,8.28s6.6-2.85,6.6-8.21S233.09,113.19,228.41,113.19Zm0,14c-3.66,0-4.28-1.86-4.28-6.2s1-5.73,4.28-5.73c3,0,4.21,1.67,4.21,5.8S232.07,127.23,228.41,127.23Z"></path><path class="cls-4" d="M245.27,136.29c4.37,0,6.92-1.43,6.92-4.93,0-3.69-1.58-4.56-6-4.56-3.47,0-3.75-.19-3.75-1.43a9.17,9.17,0,0,1,.56-1.76,14.06,14.06,0,0,0,1.52.12c4,0,6-1.18,6-5.23a4.1,4.1,0,0,0-1-3.08l2.85.06v-2l-4.52.12a13.28,13.28,0,0,0-3.23-.43c-3.44,0-5.76,1.49-5.76,5.3,0,2.89,1.14,4.09,2.41,4.68a10.15,10.15,0,0,0-1,2.45,2.44,2.44,0,0,0,.87,2.14c-1.64,1.21-2.48,2-2.48,3.85C238.61,135.2,240.38,136.29,245.27,136.29Zm.75-7.44c2.79,0,3.81.24,3.81,2.6,0,2.05-1.39,2.88-4.52,2.88-3.51,0-4.41-.77-4.41-2.91,0-1.21.47-1.77,1.74-2.73C242.64,128.69,244.9,128.85,246,128.85Zm-1.49-7c-2.57,0-3.38-1.15-3.38-3.38,0-2.48,1.15-3.41,3.44-3.41,2.64,0,3.6.72,3.6,3.41C248.19,121,247.13,121.87,244.53,121.87Z"></path><path class="cls-4" d="M256.31,129h2.29V113.5h-2.29Zm0-19h2.29v-2.7h-2.29Z"></path><path class="cls-4" d="M269.7,127.2c-3.07,0-4.06-1.7-4.09-5h10.26l.13-1.79c0-5.09-2.14-7.26-6.23-7.26-3.94,0-6.51,2.26-6.51,8.15,0,5.27,1.52,8,6.16,8a53.74,53.74,0,0,0,6-.49l-.06-1.9S272,127.2,269.7,127.2Zm-4.09-6.85c0-3.62,1.49-5.08,4.16-5.08s3.9,1.36,3.9,5.08Z"></path><path class="cls-4" d="M294,115.61h4.53V113.5H294v-1.36c0-2.85.59-3.6,2.33-3.6.9,0,2.63.06,2.63.06l0-1.92s-2.05-.22-3.14-.22c-3,0-4.15,1.18-4.15,5.65v1.39h-1.95v2.11h1.95V129H294Z"></path><path class="cls-4" d="M312.12,113.5v12.59a10.89,10.89,0,0,1-4.25,1.14c-2.91,0-3.28-1.39-3.28-5.67V113.5h-2.3v8.09c0,5.74.9,7.72,5.24,7.72a11.58,11.58,0,0,0,4.59-1.3v1h2.29V113.5Zm-7.75-3.87h2.23v-2.79h-2.23Zm6.2,0h2.26v-2.79h-2.26Z"></path><path class="cls-4" d="M320.43,129h2.32V117.75a17.51,17.51,0,0,1,5.4-2.14v-2.42a14.49,14.49,0,0,0-5.4,2.36v-2h-2.32Z"></path><path class="cls-4" d="M350.32,127.05c-5,0-6-3-6-8.71s1.08-9,6-9,6,3.25,6,9C356.34,124.26,355.28,127.05,350.32,127.05Zm0,2.26c6.64,0,8.46-3.59,8.46-11,0-7.16-1.82-11.22-8.46-11.22s-8.49,4.09-8.49,11.22S343.63,129.31,350.32,129.31Z"></path><path class="cls-4" d="M370.53,113.19a13.11,13.11,0,0,0-4.52,1v-7.47h-2.33V129s3.35.34,5.21.34c5.64,0,7.32-2.2,7.32-8.34C376.21,115.42,374.75,113.19,370.53,113.19Zm-1.67,14c-.84,0-2.85-.18-2.85-.18V116.17a14.55,14.55,0,0,1,4.31-.84c2.73,0,3.53,1.67,3.53,5.7C373.85,125.31,373.11,127.23,368.86,127.23Z"></path><path class="cls-4" d="M386.34,127.2c-3.06,0-4.06-1.7-4.09-5h10.26l.13-1.79c0-5.09-2.14-7.26-6.23-7.26s-6.51,2.26-6.51,8.15c0,5.27,1.52,8,6.17,8a53.72,53.72,0,0,0,6-.49l-.06-1.9S388.67,127.2,386.34,127.2Zm-4.09-6.85c0-3.62,1.49-5.08,4.16-5.08s3.9,1.36,3.9,5.08Z"></path><path class="cls-4" d="M397.35,129h2.33V117.75a17.53,17.53,0,0,1,5.39-2.14v-2.42a14.39,14.39,0,0,0-5.39,2.36v-2h-2.33Z"></path><path class="cls-4" d="M411.39,115.61h4.53V113.5h-4.53v-1.36c0-2.85.59-3.6,2.33-3.6.9,0,2.63.06,2.63.06l0-1.92s-2.05-.22-3.14-.22c-3,0-4.15,1.18-4.15,5.65v1.39h-2v2.11h2V129h2.29Z"></path><rect class="cls-1" x="419.83" y="106.74" width="2.29" height="22.26"></rect><path class="cls-4" d="M438.52,118.24c0-3.5-1.64-5-4.9-5a47.79,47.79,0,0,0-6.13.62l.09,2s3.66-.41,5.92-.41c1.74,0,2.7.87,2.7,2.82v1.28l-4.87.46c-3.22.28-4.74,1.61-4.74,4.59s1.55,4.74,4.21,4.74a16.56,16.56,0,0,0,5.74-1.18c.8.84,1.8,1.18,3.69,1.18l.06-2c-1-.13-1.74-.44-1.77-1.43Zm-2.32,3.17v5a18.37,18.37,0,0,1-5,.93c-1.39,0-2.2-1-2.2-2.79,0-1.58.75-2.55,2.64-2.73Zm-7.32-11.78h2.23v-2.79h-2.23Zm6.2,0h2.26v-2.79h-2.26Z"></path><path class="cls-4" d="M450.15,113.19c-4.62,0-6.42,2.17-6.42,7.78,0,6.08,1.43,8.34,6.39,8.34a42.75,42.75,0,0,0,4.31-.43l-.1-2s-2.51.28-3.69.28c-3.81,0-4.52-1.64-4.52-6.17,0-4.09,1-5.58,4.52-5.58,1.18,0,3.66.28,3.66.28l.06-2A35.63,35.63,0,0,0,450.15,113.19Z"></path><path class="cls-4" d="M461.34,129V116.23a14.75,14.75,0,0,1,4.43-.9c2.79,0,3.26,1.52,3.26,5.61V129h2.32v-8.09c0-5.61-1-7.72-5.24-7.72a15.23,15.23,0,0,0-4.77,1.06v-7.51H459V129Z"></path><path class="cls-4" d="M482.42,127.2c-3.07,0-4.06-1.7-4.09-5h10.26l.12-1.79c0-5.09-2.13-7.26-6.23-7.26-3.93,0-6.51,2.26-6.51,8.15,0,5.27,1.52,8,6.17,8a54,54,0,0,0,6-.49l-.07-1.9S484.75,127.2,482.42,127.2Zm-4.09-6.85c0-3.62,1.49-5.08,4.15-5.08s3.91,1.36,3.91,5.08Z"></path><path class="cls-4" d="M495.75,129V116.45a10.39,10.39,0,0,1,4.37-1.18c2.89,0,3.35,1.52,3.35,5.64V129h2.3v-8.06c0-5.64-1-7.75-5.21-7.75a11.39,11.39,0,0,0-4.81,1.43V113.5h-2.32V129Z"></path><path class="cls-4" d="M521.82,113.78a39.45,39.45,0,0,0-5.61-.59c-2.82,0-5.58,1.12-5.58,4.53,0,3,1.68,3.78,5.46,4.37,3.1.49,3.91.87,3.91,2.48,0,2.11-1.37,2.66-3.91,2.66-1.58,0-5.12-.52-5.12-.52l-.12,2a43.64,43.64,0,0,0,5.46.59c3.75,0,6-1.21,6-4.83,0-3-1.49-3.85-5.58-4.5-3.07-.46-3.78-.9-3.78-2.36,0-1.82,1.43-2.32,3.35-2.32a50.33,50.33,0,0,1,5.42.5Z"></path><path class="cls-4" d="M532.64,113.19c-4.61,0-6.41,2.17-6.41,7.78,0,6.08,1.42,8.34,6.38,8.34a42.41,42.41,0,0,0,4.31-.43l-.09-2s-2.51.28-3.69.28c-3.81,0-4.53-1.64-4.53-6.17,0-4.09,1-5.58,4.53-5.58,1.18,0,3.66.28,3.66.28l.06-2A35.61,35.61,0,0,0,532.64,113.19Z"></path><path class="cls-4" d="M543.84,129V116.23a14.67,14.67,0,0,1,4.43-.9c2.79,0,3.25,1.52,3.25,5.61V129h2.33v-8.09c0-5.61-1-7.72-5.24-7.72a15.23,15.23,0,0,0-4.77,1.06v-7.51h-2.33V129Z"></path><path class="cls-4" d="M569.23,113.5v12.59a10.89,10.89,0,0,1-4.25,1.14c-2.91,0-3.29-1.39-3.29-5.67V113.5H559.4v8.09c0,5.74.9,7.72,5.24,7.72a11.58,11.58,0,0,0,4.59-1.3v1h2.29V113.5Z"></path><path class="cls-4" d="M585.1,115.61V113.5h-4.9v-4.74h-2.32v4.74h-2.2v2.11h2.2v8.06c0,4.46,1.11,5.67,4.31,5.67a26.5,26.5,0,0,0,3.13-.34l-.13-2s-1.89.15-2.76.15c-2,0-2.23-.93-2.23-4.31v-7.22Z"></path><polygon class="cls-4" points="588.36 115.61 597.07 115.61 588.36 126.89 588.36 129 599.86 129 599.86 126.89 591.15 126.89 599.86 115.61 599.86 113.5 588.36 113.5 588.36 115.61"></polygon><path class="cls-5" d="M185.43,58.33V34.79a17.66,17.66,0,0,0-17.7-17.68h-53.1V76h53.1A17.65,17.65,0,0,0,185.43,58.33Zm-11.8,0a5.83,5.83,0,0,1-5.9,5.89h-41.3V28.91h41.3a5.83,5.83,0,0,1,5.9,5.88Z"></path><path class="cls-5" d="M268,58.36V17.23h-11.8V58.36a5.83,5.83,0,0,1-5.9,5.88h-35.4a5.84,5.84,0,0,1-5.9-5.88V17.23h-11.8V58.36A17.65,17.65,0,0,0,214.93,76h35.4A17.64,17.64,0,0,0,268,58.36Z"></path><path class="cls-5" d="M350.63,58.33V34.79a17.67,17.67,0,0,0-17.7-17.68h-35.4a17.67,17.67,0,0,0-17.7,17.68V58.33A17.66,17.66,0,0,0,297.53,76h35.4A17.66,17.66,0,0,0,350.63,58.33Zm-11.8,0a5.83,5.83,0,0,1-5.9,5.89h-35.4a5.84,5.84,0,0,1-5.9-5.89V34.79a5.84,5.84,0,0,1,5.9-5.88h35.4a5.83,5.83,0,0,1,5.9,5.88Z"></path><path class="cls-3" d="M448,76V64.22h-29.5a5.84,5.84,0,0,1-5.9-5.89V28.91H448V17.11h-35.4V.51h-11.8v16.6H389v11.8h11.8V58.33A17.66,17.66,0,0,0,418.48,76Z"></path><path class="cls-3" d="M524.68,76.11V64.31h-53.1a5.85,5.85,0,0,1-5.9-5.9v-5.9h59V34.81A17.67,17.67,0,0,0,507,17.11h-35.4a17.68,17.68,0,0,0-17.7,17.7v23.6a17.68,17.68,0,0,0,17.7,17.7Zm-11.8-35.4h-47.2v-5.9a5.84,5.84,0,0,1,5.9-5.9H507a5.84,5.84,0,0,1,5.9,5.9Z"></path><path class="cls-3" d="M599,76V64.22h-47.2a5.84,5.84,0,0,1-5.9-5.89V34.79a5.84,5.84,0,0,1,5.9-5.88H599V17.11h-47.2a17.67,17.67,0,0,0-17.7,17.68V58.33A17.66,17.66,0,0,0,551.82,76Z"></path></g></g></svg> 