<?xml version="1.0" encoding="UTF-8"?> <svg xmlns="http://www.w3.org/2000/svg" id="Ebene_1" data-name="Ebene 1" width="113.94265" height="77.63616" viewBox="0 0 113.94265 77.63616"><g id="Ebene_2" data-name="Ebene 2"><g id="Ebene_1-2" data-name="Ebene 1-2"><path d="M78.11638,7.72329c.11238,2.6024,.59731,5.17525,1.44,7.64,.44177,1.17105,1.12295,2.23708,2,3.13,.49,.43,1.39,1.14,2.12,1.05h3.37l5,4.2,5-4.19h5.69c1.98177,.01364,3.69105,1.39517,4.12,3.33l5.22999,23.72c.47497,1.90814-.68685,3.84003-2.59499,4.315-1.90815,.47496-3.84003-.68686-4.315-2.595l-3.42-12.26-.77,35.19c-.04975,2.60078-2.19843,4.66881-4.79922,4.61906-1.75783-.03362-3.3506-1.0435-4.13078-2.61906-1.14223,2.33092-3.95778,3.29453-6.28869,2.1523-1.58871-.77853-2.60564-2.38327-2.63131-4.1523l-.92-43.37c-.83631-.17887-1.65099-.44707-2.43-.8-2.13282-.99248-3.95984-2.53974-5.29-4.48" style="fill: none; stroke: #004799; stroke-width: 3.5px;"></path><path d="M93.07638,14.50329s-.75,.08-1,.08-1-.08-1-.08c-2.32-.39-3.76-2.37-4.31-4.63-.58-2.51-.78-5.87,1.73-7.37,2.28532-1.00038,4.88468-1.00038,7.17,0,2.47,1.5,2.32,4.86,1.71,7.37-.54,2.26-1.99,4.24-4.3,4.63Z" style="fill: none; stroke: #004799; stroke-width: 3.5px;"></path><line x1="92.07638" y1="73.25329" x2="92.07638" y2="50.32329" style="fill: none; stroke: #004799; stroke-width: 3.5px;"></line><path d="M39.39639,22.59329c1.80228,2.67334,4.56219,4.55265,7.71,5.25l.88,43.41c.04975,2.60078,2.19843,4.66881,4.79922,4.61906,1.75783-.03362,3.3506-1.0435,4.13078-2.61906,1.14223,2.33092,3.95778,3.29453,6.28869,2.1523,1.58871-.77853,2.60564-2.38327,2.63131-4.1523l.92-43.37c.83631-.17887,1.65099-.44707,2.43-.8,2.3974-1.10467,4.41513-2.8928,5.8-5.14,2.69-4.26,3.47-10,3.11-15-.17117-1.98639-1.92021-3.45791-3.90659-3.28675-.20716,.01785-.41239,.05357-.6134,.10675-1.9,.54-2.51,2.19-2.64,4-.10888,2.60194-.59045,5.17482-1.43,7.64-.44917,1.16733-1.12943,2.23194-2,3.13-.52,.39-1.52,1.47-1.52,1.47-1.31923-.25787-2.65668-.41167-4-.46l-5,4.21-5-4.21c-2,0-2.95,.46-3.39,0-.73005-.25085-1.42816-.58647-2.08-1-.79966-.83209-1.44925-1.79633-1.92-2.85-.96503-2.3571-1.50992-4.86497-1.61-7.41" style="fill: none; stroke: #004799; stroke-width: 3.5px;"></path><path d="M42.98639,6.93329c-.17117-1.98639-1.92021-3.45791-3.90659-3.28675-.20716,.01785-.4124,.05357-.61341,.10675-1.9,.54-2.51,2.19-2.64,4-.10888,2.60194-.59045,5.17482-1.43,7.64-.44917,1.16733-1.12943,2.23194-2,3.13-.5,.43-1.4,1.14-2.13,1.05h-3.43l-5,4.2-5-4.19h-5.7c-1.98533-.00726-3.70987,1.36406-4.15,3.3L1.81639,46.60329c-.37657,1.93536,.88707,3.80956,2.82243,4.18613,1.79601,.34946,3.56549-.71551,4.09757-2.46613l3.41-12.26,.75,35.19c.04975,2.60078,2.19843,4.66881,4.79922,4.61906,1.75783-.03362,3.3506-1.0435,4.13078-2.61906,1.14223,2.33092,3.95777,3.29453,6.28869,2.15231,1.58872-.77853,2.60564-2.38327,2.63131-4.15231l.92-43.37c.83632-.17887,1.65099-.44707,2.43-.8,2.37528-1.11444,4.37113-2.90167,5.74-5.14,2.69-4.26,3.47-10.05,3.15-15.01Z" style="fill: none; stroke: #004799; stroke-width: 3.5px;"></path><path d="M20.83639,14.50329s.74,.08,1,.08,1-.08,1-.08c2.32-.39,3.77-2.37,4.31-4.63,.6-2.51,.76-5.86-1.71-7.37-1.12103-.52887-2.351-.78583-3.59-.75-1.23567-.03463-2.46213,.22231-3.58,.75-2.5,1.5-2.34,4.86-1.74,7.37,.55,2.26,1.99,4.24,4.31,4.63Z" style="fill: none; stroke: #004799; stroke-width: 3.5px;"></path><path d="M55.98639,14.50329s.74,.08,1,.08,1-.08,1-.08c2.32-.39,3.76-2.37,4.31-4.63,.6-2.51,.76-5.86-1.71-7.37-2.28532-1.00039-4.88469-1.00039-7.17,0-2.43,1.5-2.32,4.86-1.72,7.37,.54,2.26,1.99,4.24,4.29,4.63Z" style="fill: none; stroke: #004799; stroke-width: 3.5px;"></path><line x1="21.82639" y1="73.25329" x2="21.82639" y2="50.32329" style="fill: none; stroke: #004799; stroke-width: 3.5px;"></line><line x1="56.98639" y1="73.25329" x2="56.98639" y2="50.32329" style="fill: none; stroke: #004799; stroke-width: 3.5px;"></line></g></g></svg> 