<?xml version="1.0" encoding="UTF-8"?> <svg xmlns="http://www.w3.org/2000/svg" id="Ebene_1" data-name="Ebene 1" width="62.3" height="82.98" viewBox="0 0 62.3 82.98"><g id="Ebene_2" data-name="Ebene 2"><g id="Ebene_1-2" data-name="Ebene 1-2"><path d="M31.15,62.3C13.94633,62.3,0,48.35367,0,31.15S13.94633,0,31.15,0s31.15,13.94633,31.15,31.15c-.01654,17.19682-13.95319,31.13346-31.15,31.15Zm0-58.79C15.87932,3.51,3.5,15.88932,3.5,31.16s12.37933,27.65,27.65,27.65,27.65-12.37933,27.65-27.65c0-.00333,0-.00667,0-.01-.01654-15.2622-12.3878-27.62898-27.65-27.64Z" style="fill: #004799;"></path><polygon points="52.5 82.98 31.15 72.3 9.81 82.98 9.81 53.02 13.31 53.02 13.31 77.31 31.15 68.39 49 77.31 49 53.02 52.5 53.02 52.5 82.98" style="fill: #004799;"></polygon><path d="M31.15,55.76c-13.59173,0-24.61-11.01827-24.61-24.61S17.55827,6.54,31.15,6.54s24.61,11.01827,24.61,24.61c-.01653,13.58487-11.02513,24.59347-24.61,24.61Zm0-45.72c-11.65873,0-21.11,9.45127-21.11,21.11s9.45127,21.11,21.11,21.11,21.11-9.45127,21.11-21.11c.00553-11.66587-9.44413-21.12896-21.11-21.14v.03Z" style="fill: #004799;"></path><path d="M41.78,46.22l-10.63-6.58-10.63,6.58,2.67-12.65-9.12-8.48,12.13-1.23,4.95-12,5,12,12.13,1.23-9.12,8.48,2.62,12.65Zm-10.63-10.69l5.52,3.41-1.39-6.58,4.92-4.57-6.53-.66-2.52-6.12-2.52,6.1-6.52,.66,4.9,4.59-1.38,6.58,5.52-3.41Z" style="fill: #004799;"></path><rect x="19.61" y="58.87" width="3.5" height="16.37" style="fill: #004799;"></rect><rect x="39.2" y="58.87" width="3.5" height="16.37" style="fill: #004799;"></rect></g></g></svg> 